<svg width="1024" height="1024" viewBox="0 0 1024 1024" fill="none" xmlns="http://www.w3.org/2000/svg">
  <defs>
    <linearGradient id="bg" x1="0" y1="0" x2="0" y2="1024" gradientUnits="userSpaceOnUse">
      <stop offset="0" stop-color="#0E3A52"/>
      <stop offset="1" stop-color="#071F2C"/>
    </linearGradient>
    <linearGradient id="lime" x1="600" y1="590" x2="820" y2="810" gradientUnits="userSpaceOnUse">
      <stop offset="0" stop-color="#CFD83A"/>
      <stop offset="1" stop-color="#B4BD00"/>
    </linearGradient>
  </defs>

  <!-- Background -->
  <rect width="1024" height="1024" rx="232" fill="url(#bg)"/>
  <path d="M232 0H792C920.077 0 1024 103.923 1024 232V360C820 300 620 292 512 292C404 292 204 300 0 360V232C0 103.923 103.923 0 232 0Z" fill="#ffffff" opacity="0.04"/>

  <g transform="translate(0,-14)">
  <!-- Sprout (GDM roots) behind the car -->
  <g opacity="0.9">
    <path d="M512 300 C512 340 512 360 512 392" stroke="#B4BD00" stroke-width="16" stroke-linecap="round"/>
    <path d="M512 340 C470 322 440 330 424 360 C466 372 496 366 512 340 Z" fill="#B4BD00"/>
    <path d="M512 328 C554 306 588 314 606 346 C560 360 528 354 512 328 Z" fill="#CFD83A"/>
  </g>

  <!-- Car -->
  <g>
    <!-- cabin -->
    <path d="M356 452 L406 372 Q416 356 436 356 L590 356 Q612 356 624 375 L672 452 Z" fill="#FFFFFF"/>
    <!-- windows -->
    <path d="M430 440 L462 390 L506 390 L506 440 Z" fill="#B4BD00"/>
    <path d="M534 440 L534 390 L584 390 Q593 390 599 400 L624 440 Z" fill="#B4BD00"/>
    <!-- body -->
    <rect x="266" y="438" width="492" height="120" rx="48" fill="#FFFFFF"/>
    <!-- headlight -->
    <rect x="720" y="470" width="34" height="28" rx="12" fill="#B4BD00"/>
    <!-- wheels -->
    <circle cx="378" cy="560" r="62" fill="#0B1620"/>
    <circle cx="378" cy="560" r="27" fill="#CFD83A"/>
    <circle cx="612" cy="560" r="62" fill="#0B1620"/>
    <circle cx="612" cy="560" r="27" fill="#CFD83A"/>
  </g>

  <!-- Check badge (reservation approved / checklist ok) -->
  <g>
    <circle cx="708" cy="678" r="104" fill="url(#lime)" stroke="#071F2C" stroke-width="16"/>
    <path d="M660 680 L694 716 L760 636" stroke="#071F2C" stroke-width="30" stroke-linecap="round" stroke-linejoin="round" fill="none"/>
  </g>
  </g>
</svg>
